<svg width="1020" height="439" viewBox="0 0 1020 439" fill="none" xmlns="http://www.w3.org/2000/svg">
<path d="M447.748 188.126C463.109 188.126 476.26 193.807 487.202 205.17C498.355 216.533 503.931 229.79 503.931 244.94V333.319C503.931 334.792 503.3 336.159 502.037 337.422C500.985 338.474 499.722 339 498.249 339C496.777 339 495.514 338.474 494.462 337.422C493.41 336.159 492.884 334.792 492.884 333.319V244.94C492.884 232.946 488.465 222.32 479.627 213.061C470.789 203.802 460.163 199.173 447.748 199.173C435.543 199.173 425.022 203.802 416.184 213.061C407.346 222.32 402.927 232.946 402.927 244.94V333.634C402.927 335.107 402.296 336.37 401.033 337.422C399.981 338.474 398.719 339 397.246 339C395.773 339 394.51 338.474 393.458 337.422C392.406 336.37 391.88 335.107 391.88 333.634V244.94C391.88 229.79 397.351 216.533 408.293 205.17C419.446 193.807 432.597 188.126 447.748 188.126ZM550.507 190.02H579.861C599.22 190.02 613.424 195.175 622.472 205.486C631.52 215.586 636.044 229.053 636.044 245.887V333.319C636.044 337.106 634.256 339 630.679 339C629.206 339 627.838 338.474 626.575 337.422C625.523 336.37 624.997 335.002 624.997 333.319V316.905C611.109 332.898 595.327 340.894 577.652 340.894C564.605 340.894 553.979 337.422 545.772 330.478C537.776 323.323 533.778 312.907 533.778 299.23C533.778 283.448 539.986 272.611 552.401 266.719C565.026 260.617 583.333 257.566 607.322 257.566H624.997V245.887C624.997 233.051 621.104 222.425 613.319 214.008C605.743 205.381 594.591 201.067 579.861 201.067H550.507C549.034 201.067 547.666 200.541 546.404 199.489C545.352 198.226 544.826 196.858 544.826 195.385C544.826 191.808 546.719 190.02 550.507 190.02ZM624.997 295.127V268.613H607.637C598.168 268.613 590.172 268.929 583.649 269.56C577.336 270.191 570.918 271.559 564.395 273.663C557.872 275.557 552.927 278.713 549.56 283.132C546.404 287.341 544.826 292.707 544.826 299.23C544.826 309.33 547.772 317.011 553.663 322.271C559.766 327.321 567.657 329.847 577.336 329.847C588.699 329.847 599.431 325.848 609.531 317.852C619.842 309.856 624.997 302.281 624.997 295.127ZM682.088 327.953H761.944C763.417 327.953 764.679 328.584 765.732 329.847C766.994 330.899 767.625 332.161 767.625 333.634C767.625 335.107 766.994 336.37 765.732 337.422C764.679 338.474 763.417 339 761.944 339H671.356C667.569 339 665.675 337.317 665.675 333.95C665.675 332.266 666.096 331.004 666.937 330.162L751.212 201.067H671.356C669.883 201.067 668.516 200.541 667.253 199.489C666.201 198.437 665.675 197.174 665.675 195.701C665.675 194.018 666.201 192.65 667.253 191.598C668.305 190.546 669.673 190.02 671.356 190.02H761.944C763.417 190.02 764.679 190.546 765.732 191.598C766.994 192.65 767.625 194.018 767.625 195.701C767.625 196.964 767.31 198.016 766.678 198.857L682.088 327.953ZM804.496 190.02H833.85C853.209 190.02 867.413 195.175 876.461 205.486C885.509 215.586 890.033 229.053 890.033 245.887V333.319C890.033 337.106 888.245 339 884.667 339C883.194 339 881.827 338.474 880.564 337.422C879.512 336.37 878.986 335.002 878.986 333.319V316.905C865.098 332.898 849.316 340.894 831.64 340.894C818.594 340.894 807.968 337.422 799.761 330.478C791.765 323.323 787.767 312.907 787.767 299.23C787.767 283.448 793.974 272.611 806.389 266.719C819.015 260.617 837.322 257.566 861.31 257.566H878.986V245.887C878.986 233.051 875.093 222.425 867.307 214.008C859.732 205.381 848.58 201.067 833.85 201.067H804.496C803.023 201.067 801.655 200.541 800.392 199.489C799.34 198.226 798.814 196.858 798.814 195.385C798.814 191.808 800.708 190.02 804.496 190.02ZM878.986 295.127V268.613H861.626C852.157 268.613 844.161 268.929 837.637 269.56C831.325 270.191 824.907 271.559 818.384 273.663C811.861 275.557 806.916 278.713 803.549 283.132C800.392 287.341 798.814 292.707 798.814 299.23C798.814 309.33 801.76 317.011 807.652 322.271C813.754 327.321 821.645 329.847 831.325 329.847C842.688 329.847 853.419 325.848 863.52 317.852C873.83 309.856 878.986 302.281 878.986 295.127ZM980.581 188.126H988.472C991.839 188.126 993.522 189.914 993.522 193.492C993.522 197.279 991.839 199.173 988.472 199.173H980.581C968.798 199.173 959.118 204.644 951.543 215.586C944.178 226.528 940.495 239.048 940.495 253.147V333.634C940.495 335.107 939.864 336.37 938.602 337.422C937.55 338.474 936.287 339 934.814 339C933.341 339 932.079 338.474 931.026 337.422C929.974 336.37 929.448 335.107 929.448 333.634V253.147C929.448 235.892 934.288 220.742 943.967 207.695C953.857 194.649 966.062 188.126 980.581 188.126Z" fill="white"/>
<g filter="url(#filter0_d_102_197)">
<path d="M158.914 108.76C164.34 105.628 171.024 105.628 176.449 108.76L299.747 179.946C305.172 183.079 308.515 188.868 308.515 195.132V337.504C308.515 343.769 305.173 349.558 299.747 352.69L176.45 423.876C171.024 427.008 164.34 427.008 158.914 423.876L35.6166 352.69C30.1912 349.558 26.8489 343.769 26.8489 337.504V195.132C26.8489 188.868 30.1912 183.079 35.6166 179.946L158.914 108.76Z" stroke="#0094FF" stroke-width="8.76768"/>
<path d="M160.591 162.419C166.016 159.286 172.701 159.286 178.126 162.419L256.407 207.614C261.832 210.746 265.174 216.535 265.174 222.8V313.19C265.174 319.455 261.832 325.244 256.407 328.376L178.126 373.571C172.701 376.704 166.016 376.704 160.591 373.571L82.3106 328.376C76.8851 325.244 73.5429 319.455 73.5429 313.19V222.8C73.5429 216.535 76.8851 210.746 82.3106 207.614L160.591 162.419Z" stroke="white" stroke-width="8.76768"/>
<path d="M163.374 216.856C166.04 215.317 169.324 215.317 171.99 216.856L208.364 237.856C211.029 239.395 212.672 242.24 212.672 245.318V287.319C212.672 290.397 211.029 293.241 208.364 294.78L171.99 315.781C169.324 317.32 166.04 317.32 163.374 315.781L127 294.78C124.334 293.241 122.692 290.397 122.692 287.319V245.318C122.692 242.24 124.334 239.395 127 237.856L163.374 216.856Z" stroke="#0094FF" stroke-width="8.76768"/>
</g>
<defs>
<filter id="filter0_d_102_197" x="18.4651" y="102.027" width="298.433" height="336.582" filterUnits="userSpaceOnUse" color-interpolation-filters="sRGB">
<feFlood flood-opacity="0" result="BackgroundImageFix"/>
<feColorMatrix in="SourceAlpha" type="matrix" values="0 0 0 0 0 0 0 0 0 0 0 0 0 0 0 0 0 0 127 0" result="hardAlpha"/>
<feOffset dy="4"/>
<feGaussianBlur stdDeviation="2"/>
<feComposite in2="hardAlpha" operator="out"/>
<feColorMatrix type="matrix" values="0 0 0 0 0 0 0 0 0 0 0 0 0 0 0 0 0 0 0.25 0"/>
<feBlend mode="normal" in2="BackgroundImageFix" result="effect1_dropShadow_102_197"/>
<feBlend mode="normal" in="SourceGraphic" in2="effect1_dropShadow_102_197" result="shape"/>
</filter>
</defs>
</svg>
