<svg width="611" height="220" viewBox="0 0 611 220" fill="none" xmlns="http://www.w3.org/2000/svg">
<g filter="url(#filter0_d_33_32)">
<path fill-rule="evenodd" clip-rule="evenodd" d="M150.777 75.648L103.725 48.2105C101.279 46.7843 98.266 46.7843 95.8202 48.2105L48.7679 75.648C46.3221 77.0742 44.8154 79.71 44.8154 82.5625V137.437C44.8154 140.29 46.3221 142.926 48.7679 144.352L95.8202 171.789C98.266 173.216 101.279 173.216 103.725 171.789L150.777 144.352C153.223 142.926 154.73 140.29 154.73 137.437V82.5625C154.73 79.71 153.223 77.0742 150.777 75.648ZM106.36 43.6009C102.284 41.2239 97.2615 41.2239 93.1852 43.6009L46.1329 71.0384C42.0566 73.4154 39.5454 77.8084 39.5454 82.5625V137.437C39.5454 142.191 42.0566 146.584 46.1329 148.962L93.1852 176.399C97.2615 178.776 102.284 178.776 106.36 176.399L153.412 148.962C157.489 146.584 160 142.191 160 137.437V82.5625C160 77.8084 157.489 73.4154 153.412 71.0384L106.36 43.6009Z" fill="white"/>
<path fill-rule="evenodd" clip-rule="evenodd" d="M121.669 94.0848L99.9027 81.5021C99.1191 81.0491 98.1537 81.0491 97.3701 81.5021L75.6039 94.0848C74.8203 94.5378 74.3376 95.3749 74.3376 96.2809V121.446C74.3376 122.352 74.8203 123.189 75.6039 123.642L97.3701 136.225C98.1537 136.678 99.1191 136.678 99.9027 136.225L121.669 123.642C122.453 123.189 122.935 122.352 122.935 121.446V96.2809C122.935 95.3749 122.453 94.5378 121.669 94.0848ZM102.526 76.9526C100.119 75.5612 97.1537 75.5612 94.7468 76.9526L72.9806 89.5353C70.5737 90.9267 69.0909 93.4981 69.0909 96.2809V121.446C69.0909 124.229 70.5737 126.801 72.9806 128.192L94.7468 140.775C97.1537 142.166 100.119 142.166 102.526 140.775L124.292 128.192C126.699 126.801 128.182 124.229 128.182 121.446V96.2809C128.182 93.4981 126.699 90.9267 124.292 89.5353L102.526 76.9526Z" fill="#0094FF"/>
<path fill-rule="evenodd" clip-rule="evenodd" d="M177.907 59.7383L102.65 16.4091C100.166 14.9792 97.1063 14.9792 94.6227 16.4091L19.3652 59.7383C16.8816 61.1683 15.3516 63.8109 15.3516 66.6709V153.329C15.3516 156.189 16.8816 158.832 19.3652 160.262L94.6227 203.591C97.1063 205.021 100.166 205.021 102.65 203.591L177.907 160.262C180.391 158.832 181.921 156.189 181.921 153.329V66.6708C181.921 63.8109 180.391 61.1683 177.907 59.7383ZM105.326 11.7874C101.186 9.40418 96.0863 9.40419 91.9469 11.7875L16.6894 55.1166C12.55 57.4999 10 61.9043 10 66.6709V153.329C10 158.096 12.55 162.5 16.6894 164.883L91.9469 208.213C96.0863 210.596 101.186 210.596 105.326 208.213L180.583 164.883C184.723 162.5 187.273 158.096 187.273 153.329V66.6708C187.273 61.9043 184.723 57.4999 180.583 55.1166L105.326 11.7874Z" fill="#0094FF"/>
<path d="M266.916 60C276.316 60 284.365 63.4654 291.061 70.3963C297.886 77.3272 301.298 85.4132 301.298 94.6544V148.561C301.298 149.46 300.912 150.294 300.139 151.064C299.495 151.706 298.723 152.027 297.821 152.027C296.92 152.027 296.147 151.706 295.503 151.064C294.86 150.294 294.538 149.46 294.538 148.561V94.6544C294.538 87.3385 291.833 80.8568 286.425 75.2094C281.017 69.562 274.514 66.7384 266.916 66.7384C259.447 66.7384 253.009 69.562 247.6 75.2094C242.192 80.8568 239.488 87.3385 239.488 94.6544V148.754C239.488 149.652 239.101 150.422 238.329 151.064C237.685 151.706 236.912 152.027 236.011 152.027C235.11 152.027 234.337 151.706 233.693 151.064C233.049 150.422 232.727 149.652 232.727 148.754V94.6544C232.727 85.4132 236.075 77.3272 242.771 70.3963C249.596 63.4654 257.645 60 266.916 60Z" fill="white"/>
<path d="M329.801 61.1551H347.764C359.611 61.1551 368.304 64.2997 373.841 70.5888C379.378 76.7496 382.146 84.964 382.146 95.232V148.561C382.146 150.872 381.052 152.027 378.863 152.027C377.961 152.027 377.124 151.706 376.352 151.064C375.708 150.422 375.386 149.588 375.386 148.561V138.55C366.887 148.305 357.229 153.182 346.412 153.182C338.429 153.182 331.926 151.064 326.904 146.829C322.01 142.465 319.564 136.111 319.564 127.769C319.564 118.142 323.362 111.532 330.96 107.939C338.686 104.216 349.889 102.355 364.569 102.355H375.386V95.232C375.386 87.4026 373.004 80.921 368.239 75.787C363.603 70.5247 356.778 67.8935 347.764 67.8935H329.801C328.899 67.8935 328.062 67.5726 327.29 66.9309C326.646 66.1608 326.324 65.3265 326.324 64.4281C326.324 62.2461 327.483 61.1551 329.801 61.1551ZM375.386 125.266V109.094H364.762C358.968 109.094 354.074 109.286 350.082 109.671C346.219 110.056 342.292 110.891 338.3 112.174C334.308 113.329 331.282 115.255 329.221 117.95C327.29 120.517 326.324 123.79 326.324 127.769C326.324 133.929 328.127 138.614 331.732 141.823C335.467 144.903 340.296 146.443 346.219 146.443C353.173 146.443 359.74 144.005 365.921 139.128C372.231 134.25 375.386 129.63 375.386 125.266Z" fill="white"/>
<path d="M410.323 145.288H459.192C460.093 145.288 460.866 145.673 461.51 146.443C462.283 147.085 462.669 147.855 462.669 148.754C462.669 149.652 462.283 150.422 461.51 151.064C460.866 151.706 460.093 152.027 459.192 152.027H403.756C401.438 152.027 400.279 151 400.279 148.946C400.279 147.919 400.537 147.149 401.052 146.636L452.625 67.8935H403.756C402.855 67.8935 402.018 67.5726 401.245 66.9309C400.601 66.2891 400.279 65.519 400.279 64.6206C400.279 63.5938 400.601 62.7595 401.245 62.1178C401.889 61.476 402.726 61.1551 403.756 61.1551H459.192C460.093 61.1551 460.866 61.476 461.51 62.1178C462.283 62.7595 462.669 63.5938 462.669 64.6206C462.669 65.3907 462.476 66.0324 462.089 66.5458L410.323 145.288Z" fill="white"/>
<path d="M485.232 61.1551H503.196C515.043 61.1551 523.735 64.2997 529.272 70.5888C534.809 76.7496 537.578 84.964 537.578 95.232V148.561C537.578 150.872 536.483 152.027 534.294 152.027C533.393 152.027 532.556 151.706 531.783 151.064C531.139 150.422 530.817 149.588 530.817 148.561V138.55C522.318 148.305 512.66 153.182 501.844 153.182C493.86 153.182 487.357 151.064 482.335 146.829C477.441 142.465 474.995 136.111 474.995 127.769C474.995 118.142 478.794 111.532 486.391 107.939C494.117 104.216 505.32 102.355 520 102.355H530.817V95.232C530.817 87.4026 528.435 80.921 523.67 75.787C519.035 70.5247 512.21 67.8935 503.196 67.8935H485.232C484.331 67.8935 483.494 67.5726 482.721 66.9309C482.077 66.1608 481.755 65.3265 481.755 64.4281C481.755 62.2461 482.914 61.1551 485.232 61.1551ZM530.817 125.266V109.094H520.194C514.399 109.094 509.505 109.286 505.514 109.671C501.65 110.056 497.723 110.891 493.731 112.174C489.739 113.329 486.713 115.255 484.653 117.95C482.721 120.517 481.755 123.79 481.755 127.769C481.755 133.929 483.558 138.614 487.164 141.823C490.898 144.903 495.727 146.443 501.65 146.443C508.604 146.443 515.171 144.005 521.352 139.128C527.662 134.25 530.817 129.63 530.817 125.266Z" fill="white"/>
<path d="M592.99 60H597.819C599.879 60 600.909 61.091 600.909 63.2729C600.909 65.5832 599.879 66.7384 597.819 66.7384H592.99C585.778 66.7384 579.855 70.0754 575.219 76.7496C570.712 83.4238 568.459 91.0606 568.459 99.66V148.754C568.459 149.652 568.072 150.422 567.3 151.064C566.656 151.706 565.883 152.027 564.982 152.027C564.08 152.027 563.308 151.706 562.664 151.064C562.02 150.422 561.698 149.652 561.698 148.754V99.66C561.698 89.1354 564.66 79.8942 570.583 71.9365C576.636 63.9788 584.104 60 592.99 60Z" fill="white"/>
</g>
<defs>
<filter id="filter0_d_33_32" x="0" y="0" width="610.909" height="220" filterUnits="userSpaceOnUse" color-interpolation-filters="sRGB">
<feFlood flood-opacity="0" result="BackgroundImageFix"/>
<feColorMatrix in="SourceAlpha" type="matrix" values="0 0 0 0 0 0 0 0 0 0 0 0 0 0 0 0 0 0 127 0" result="hardAlpha"/>
<feOffset/>
<feGaussianBlur stdDeviation="5"/>
<feComposite in2="hardAlpha" operator="out"/>
<feColorMatrix type="matrix" values="0 0 0 0 0.0527431 0 0 0 0 0.546569 0 0 0 0 0.904167 0 0 0 0.61 0"/>
<feBlend mode="normal" in2="BackgroundImageFix" result="effect1_dropShadow_33_32"/>
<feBlend mode="normal" in="SourceGraphic" in2="effect1_dropShadow_33_32" result="shape"/>
</filter>
</defs>
</svg>
